<mxfile host="app.diagrams.net" modified="2022-01-14T05:30:18.380Z" agent="5.0 (Macintosh; Intel Mac OS X 10_15_7) AppleWebKit/537.36 (KHTML, like Gecko) Chrome/96.0.4664.55 Safari/537.36" etag="HVfNSsmHlEPnRRw3yNYa" version="16.1.0" type="github">
  <diagram id="7A_8IN64Yz7hJPyClrtF" name="Page-1">
    <mxGraphModel dx="1298" dy="639" grid="1" gridSize="10" guides="1" tooltips="1" connect="1" arrows="1" fold="1" page="1" pageScale="1" pageWidth="827" pageHeight="1169" math="0" shadow="0">
      <root>
        <mxCell id="0" />
        <mxCell id="1" parent="0" />
        <mxCell id="sdr6PrXHqlu5W56q0N-a-114" value="Table" style="shape=table;startSize=30;container=1;collapsible=1;childLayout=tableLayout;fixedRows=1;rowLines=0;fontStyle=1;align=center;resizeLast=1;sketch=1;flipH=0;flipV=0;" vertex="1" parent="1">
          <mxGeometry x="310" y="60" width="180" height="315" as="geometry" />
        </mxCell>
        <mxCell id="sdr6PrXHqlu5W56q0N-a-115" value="" style="shape=partialRectangle;collapsible=0;dropTarget=0;pointerEvents=0;fillColor=none;top=0;left=0;bottom=1;right=0;points=[[0,0.5],[1,0.5]];portConstraint=eastwest;sketch=1;" vertex="1" parent="sdr6PrXHqlu5W56q0N-a-114">
          <mxGeometry y="30" width="180" height="30" as="geometry" />
        </mxCell>
        <mxCell id="sdr6PrXHqlu5W56q0N-a-116" value="PK" style="shape=partialRectangle;connectable=0;fillColor=none;top=0;left=0;bottom=0;right=0;fontStyle=1;overflow=hidden;sketch=1;" vertex="1" parent="sdr6PrXHqlu5W56q0N-a-115">
          <mxGeometry width="30" height="30" as="geometry">
            <mxRectangle width="30" height="30" as="alternateBounds" />
          </mxGeometry>
        </mxCell>
        <mxCell id="sdr6PrXHqlu5W56q0N-a-117" value="UniqueID" style="shape=partialRectangle;connectable=0;fillColor=none;top=0;left=0;bottom=0;right=0;align=left;spacingLeft=6;fontStyle=5;overflow=hidden;sketch=1;" vertex="1" parent="sdr6PrXHqlu5W56q0N-a-115">
          <mxGeometry x="30" width="150" height="30" as="geometry">
            <mxRectangle width="150" height="30" as="alternateBounds" />
          </mxGeometry>
        </mxCell>
        <mxCell id="sdr6PrXHqlu5W56q0N-a-121" value="" style="shape=partialRectangle;collapsible=0;dropTarget=0;pointerEvents=0;fillColor=none;top=0;left=0;bottom=0;right=0;points=[[0,0.5],[1,0.5]];portConstraint=eastwest;sketch=1;" vertex="1" parent="sdr6PrXHqlu5W56q0N-a-114">
          <mxGeometry y="60" width="180" height="30" as="geometry" />
        </mxCell>
        <mxCell id="sdr6PrXHqlu5W56q0N-a-122" value="1" style="shape=partialRectangle;connectable=0;fillColor=none;top=0;left=0;bottom=0;right=0;editable=1;overflow=hidden;sketch=1;" vertex="1" parent="sdr6PrXHqlu5W56q0N-a-121">
          <mxGeometry width="30" height="30" as="geometry">
            <mxRectangle width="30" height="30" as="alternateBounds" />
          </mxGeometry>
        </mxCell>
        <mxCell id="sdr6PrXHqlu5W56q0N-a-123" value="渠道id         channel-id" style="shape=partialRectangle;connectable=0;fillColor=none;top=0;left=0;bottom=0;right=0;align=left;spacingLeft=6;overflow=hidden;sketch=1;" vertex="1" parent="sdr6PrXHqlu5W56q0N-a-121">
          <mxGeometry x="30" width="150" height="30" as="geometry">
            <mxRectangle width="150" height="30" as="alternateBounds" />
          </mxGeometry>
        </mxCell>
        <mxCell id="sdr6PrXHqlu5W56q0N-a-118" value="" style="shape=partialRectangle;collapsible=0;dropTarget=0;pointerEvents=0;fillColor=none;top=0;left=0;bottom=0;right=0;points=[[0,0.5],[1,0.5]];portConstraint=eastwest;sketch=1;" vertex="1" parent="sdr6PrXHqlu5W56q0N-a-114">
          <mxGeometry y="90" width="180" height="35" as="geometry" />
        </mxCell>
        <mxCell id="sdr6PrXHqlu5W56q0N-a-119" value="1" style="shape=partialRectangle;connectable=0;fillColor=none;top=0;left=0;bottom=0;right=0;editable=1;overflow=hidden;sketch=1;" vertex="1" parent="sdr6PrXHqlu5W56q0N-a-118">
          <mxGeometry width="30" height="35" as="geometry">
            <mxRectangle width="30" height="35" as="alternateBounds" />
          </mxGeometry>
        </mxCell>
        <mxCell id="sdr6PrXHqlu5W56q0N-a-120" value="渠道code    channel-code" style="shape=partialRectangle;connectable=0;fillColor=none;top=0;left=0;bottom=0;right=0;align=left;spacingLeft=6;overflow=hidden;sketch=1;" vertex="1" parent="sdr6PrXHqlu5W56q0N-a-118">
          <mxGeometry x="30" width="150" height="35" as="geometry">
            <mxRectangle width="150" height="35" as="alternateBounds" />
          </mxGeometry>
        </mxCell>
        <mxCell id="sdr6PrXHqlu5W56q0N-a-124" value="" style="shape=partialRectangle;collapsible=0;dropTarget=0;pointerEvents=0;fillColor=none;top=0;left=0;bottom=0;right=0;points=[[0,0.5],[1,0.5]];portConstraint=eastwest;sketch=1;" vertex="1" parent="sdr6PrXHqlu5W56q0N-a-114">
          <mxGeometry y="125" width="180" height="30" as="geometry" />
        </mxCell>
        <mxCell id="sdr6PrXHqlu5W56q0N-a-125" value="3" style="shape=partialRectangle;connectable=0;fillColor=none;top=0;left=0;bottom=0;right=0;editable=1;overflow=hidden;sketch=1;" vertex="1" parent="sdr6PrXHqlu5W56q0N-a-124">
          <mxGeometry width="30" height="30" as="geometry">
            <mxRectangle width="30" height="30" as="alternateBounds" />
          </mxGeometry>
        </mxCell>
        <mxCell id="sdr6PrXHqlu5W56q0N-a-126" value="渠道账号    channel-account" style="shape=partialRectangle;connectable=0;fillColor=none;top=0;left=0;bottom=0;right=0;align=left;spacingLeft=6;overflow=hidden;sketch=1;" vertex="1" parent="sdr6PrXHqlu5W56q0N-a-124">
          <mxGeometry x="30" width="150" height="30" as="geometry">
            <mxRectangle width="150" height="30" as="alternateBounds" />
          </mxGeometry>
        </mxCell>
        <mxCell id="sdr6PrXHqlu5W56q0N-a-133" style="shape=partialRectangle;collapsible=0;dropTarget=0;pointerEvents=0;fillColor=none;top=0;left=0;bottom=0;right=0;points=[[0,0.5],[1,0.5]];portConstraint=eastwest;sketch=1;" vertex="1" parent="sdr6PrXHqlu5W56q0N-a-114">
          <mxGeometry y="155" width="180" height="30" as="geometry" />
        </mxCell>
        <mxCell id="sdr6PrXHqlu5W56q0N-a-134" value="4" style="shape=partialRectangle;connectable=0;fillColor=none;top=0;left=0;bottom=0;right=0;editable=1;overflow=hidden;sketch=1;" vertex="1" parent="sdr6PrXHqlu5W56q0N-a-133">
          <mxGeometry width="30" height="30" as="geometry">
            <mxRectangle width="30" height="30" as="alternateBounds" />
          </mxGeometry>
        </mxCell>
        <mxCell id="sdr6PrXHqlu5W56q0N-a-135" value="渠道密码    channel-password" style="shape=partialRectangle;connectable=0;fillColor=none;top=0;left=0;bottom=0;right=0;align=left;spacingLeft=6;overflow=hidden;sketch=1;" vertex="1" parent="sdr6PrXHqlu5W56q0N-a-133">
          <mxGeometry x="30" width="150" height="30" as="geometry">
            <mxRectangle width="150" height="30" as="alternateBounds" />
          </mxGeometry>
        </mxCell>
        <mxCell id="sdr6PrXHqlu5W56q0N-a-136" style="shape=partialRectangle;collapsible=0;dropTarget=0;pointerEvents=0;fillColor=none;top=0;left=0;bottom=0;right=0;points=[[0,0.5],[1,0.5]];portConstraint=eastwest;sketch=1;" vertex="1" parent="sdr6PrXHqlu5W56q0N-a-114">
          <mxGeometry y="185" width="180" height="30" as="geometry" />
        </mxCell>
        <mxCell id="sdr6PrXHqlu5W56q0N-a-137" value="5" style="shape=partialRectangle;connectable=0;fillColor=none;top=0;left=0;bottom=0;right=0;editable=1;overflow=hidden;sketch=1;" vertex="1" parent="sdr6PrXHqlu5W56q0N-a-136">
          <mxGeometry width="30" height="30" as="geometry">
            <mxRectangle width="30" height="30" as="alternateBounds" />
          </mxGeometry>
        </mxCell>
        <mxCell id="sdr6PrXHqlu5W56q0N-a-138" value="渠道名称    channel-name" style="shape=partialRectangle;connectable=0;fillColor=none;top=0;left=0;bottom=0;right=0;align=left;spacingLeft=6;overflow=hidden;sketch=1;" vertex="1" parent="sdr6PrXHqlu5W56q0N-a-136">
          <mxGeometry x="30" width="150" height="30" as="geometry">
            <mxRectangle width="150" height="30" as="alternateBounds" />
          </mxGeometry>
        </mxCell>
        <mxCell id="sdr6PrXHqlu5W56q0N-a-139" style="shape=partialRectangle;collapsible=0;dropTarget=0;pointerEvents=0;fillColor=none;top=0;left=0;bottom=0;right=0;points=[[0,0.5],[1,0.5]];portConstraint=eastwest;sketch=1;" vertex="1" parent="sdr6PrXHqlu5W56q0N-a-114">
          <mxGeometry y="215" width="180" height="30" as="geometry" />
        </mxCell>
        <mxCell id="sdr6PrXHqlu5W56q0N-a-140" value="6" style="shape=partialRectangle;connectable=0;fillColor=none;top=0;left=0;bottom=0;right=0;editable=1;overflow=hidden;sketch=1;" vertex="1" parent="sdr6PrXHqlu5W56q0N-a-139">
          <mxGeometry width="30" height="30" as="geometry">
            <mxRectangle width="30" height="30" as="alternateBounds" />
          </mxGeometry>
        </mxCell>
        <mxCell id="sdr6PrXHqlu5W56q0N-a-141" value="渠道属性    channel-type" style="shape=partialRectangle;connectable=0;fillColor=none;top=0;left=0;bottom=0;right=0;align=left;spacingLeft=6;overflow=hidden;sketch=1;" vertex="1" parent="sdr6PrXHqlu5W56q0N-a-139">
          <mxGeometry x="30" width="150" height="30" as="geometry">
            <mxRectangle width="150" height="30" as="alternateBounds" />
          </mxGeometry>
        </mxCell>
        <mxCell id="sdr6PrXHqlu5W56q0N-a-142" style="shape=partialRectangle;collapsible=0;dropTarget=0;pointerEvents=0;fillColor=none;top=0;left=0;bottom=0;right=0;points=[[0,0.5],[1,0.5]];portConstraint=eastwest;sketch=1;" vertex="1" parent="sdr6PrXHqlu5W56q0N-a-114">
          <mxGeometry y="245" width="180" height="30" as="geometry" />
        </mxCell>
        <mxCell id="sdr6PrXHqlu5W56q0N-a-143" value="7" style="shape=partialRectangle;connectable=0;fillColor=none;top=0;left=0;bottom=0;right=0;editable=1;overflow=hidden;sketch=1;" vertex="1" parent="sdr6PrXHqlu5W56q0N-a-142">
          <mxGeometry width="30" height="30" as="geometry">
            <mxRectangle width="30" height="30" as="alternateBounds" />
          </mxGeometry>
        </mxCell>
        <mxCell id="sdr6PrXHqlu5W56q0N-a-144" value="渠道工作时长  channel-worktime" style="shape=partialRectangle;connectable=0;fillColor=none;top=0;left=0;bottom=0;right=0;align=left;spacingLeft=6;overflow=hidden;sketch=1;" vertex="1" parent="sdr6PrXHqlu5W56q0N-a-142">
          <mxGeometry x="30" width="150" height="30" as="geometry">
            <mxRectangle width="150" height="30" as="alternateBounds" />
          </mxGeometry>
        </mxCell>
        <mxCell id="sdr6PrXHqlu5W56q0N-a-145" style="shape=partialRectangle;collapsible=0;dropTarget=0;pointerEvents=0;fillColor=none;top=0;left=0;bottom=0;right=0;points=[[0,0.5],[1,0.5]];portConstraint=eastwest;sketch=1;" vertex="1" parent="sdr6PrXHqlu5W56q0N-a-114">
          <mxGeometry y="275" width="180" height="30" as="geometry" />
        </mxCell>
        <mxCell id="sdr6PrXHqlu5W56q0N-a-146" style="shape=partialRectangle;connectable=0;fillColor=none;top=0;left=0;bottom=0;right=0;editable=1;overflow=hidden;sketch=1;" vertex="1" parent="sdr6PrXHqlu5W56q0N-a-145">
          <mxGeometry width="30" height="30" as="geometry">
            <mxRectangle width="30" height="30" as="alternateBounds" />
          </mxGeometry>
        </mxCell>
        <mxCell id="sdr6PrXHqlu5W56q0N-a-147" style="shape=partialRectangle;connectable=0;fillColor=none;top=0;left=0;bottom=0;right=0;align=left;spacingLeft=6;overflow=hidden;sketch=1;" vertex="1" parent="sdr6PrXHqlu5W56q0N-a-145">
          <mxGeometry x="30" width="150" height="30" as="geometry">
            <mxRectangle width="150" height="30" as="alternateBounds" />
          </mxGeometry>
        </mxCell>
      </root>
    </mxGraphModel>
  </diagram>
</mxfile>
